<svg width="96" height="96" xmlns="http://www.w3.org/2000/svg" xmlns:xlink="http://www.w3.org/1999/xlink" overflow="hidden"><defs><clipPath id="clip0"><rect x="287" y="346" width="96" height="96"/></clipPath></defs><g clip-path="url(#clip0)" transform="translate(-287 -346)"><path d="M335 390C330 390 326 386 326 381 326 376 330 372 335 372 340 372 344 376 344 381 344 386 340 390 335 390ZM335 360C328.1 360 321.6 363.4 317.7 369.2 313.8 374.9 313 382.2 315.5 388.7L325 409.7 333.2 426.9C333.5 427.6 334.2 428 335 428 335.8 428 336.5 427.6 336.8 426.9L345 409.7 354.5 388.7C357 382.2 356.2 374.9 352.3 369.2 348.4 363.4 341.9 360 335 360Z" fill="#FFFFFF"/></g></svg>