<svg width="96" height="96" xmlns="http://www.w3.org/2000/svg" xmlns:xlink="http://www.w3.org/1999/xlink" overflow="hidden"><defs><clipPath id="clip0"><rect x="47" y="487" width="96" height="96"/></clipPath></defs><g clip-path="url(#clip0)" transform="translate(-47 -487)"><path d="M79 542.686C83.2752 542.688 86.7423 539.223 86.744 534.948 86.7457 530.673 83.2812 527.206 79.006 527.204 74.7308 527.202 71.2637 530.667 71.262 534.942 71.262 534.943 71.262 534.944 71.262 534.945 71.2609 539.219 74.7249 542.685 78.999 542.686 78.9993 542.686 78.9997 542.686 79 542.686ZM79 529.205C82.1707 529.203 84.7423 531.772 84.744 534.943 84.7457 538.114 82.1767 540.685 79.006 540.687 75.8353 540.689 73.2637 538.12 73.262 534.949 73.262 534.948 73.262 534.946 73.262 534.945 73.2648 531.777 75.8318 529.209 79 529.205Z" fill="#A6A6A6"/><path d="M93.134 548.825C90.8605 547.071 88.2551 545.796 85.475 545.077 83.3767 544.434 81.1947 544.105 79 544.1 76.8121 544.136 74.6389 544.464 72.538 545.076 69.7876 545.875 67.1954 547.141 64.875 548.82 63.7135 549.734 63.025 551.122 63 552.6L63 560 95 560 95 552.6C94.9766 551.125 94.2914 549.739 93.134 548.825ZM93 558 65 558 65 552.6C65.019 551.744 65.4177 550.941 66.088 550.408 68.2091 548.888 70.5711 547.735 73.075 547 75.0013 546.438 76.9938 546.135 79 546.1 81.0046 546.107 82.9972 546.41 84.913 547 87.4381 547.646 89.8063 548.797 91.875 550.382 92.5641 550.915 92.9771 551.729 93 552.6Z" fill="#A6A6A6"/><path d="M103 534 127 534 127 536 103 536Z" fill="#A6A6A6"/><path d="M103 542 127 542 127 544 103 544Z" fill="#A6A6A6"/><path d="M103 550 127 550 127 552 103 552Z" fill="#A6A6A6"/><path d="M103 558 127 558 127 560 103 560Z" fill="#A6A6A6"/><path d="M131 513 102 513 102 505C102 502.791 100.209 501 98 501L92 501C89.7909 501 88 502.791 88 505L88 513 59 513C56.7909 513 55 514.791 55 517L55 565C55 567.209 56.7909 569 59 569L131 569C133.209 569 135 567.209 135 565L135 517C135 514.791 133.209 513 131 513ZM90 505C90 503.895 90.8954 503 92 503L98 503C99.1046 503 100 503.895 100 505L100 516C100 517.105 99.1046 518 98 518L92 518C90.8954 518 90 517.105 90 516ZM133 565C133 566.105 132.105 567 131 567L59 567C57.8954 567 57 566.105 57 565L57 517C57 515.895 57.8954 515 59 515L88 515 88 516C88 518.209 89.7909 520 92 520L98 520C100.209 520 102 518.209 102 516L102 515 131 515C132.105 515 133 515.895 133 517Z" fill="#A6A6A6"/></g></svg>