<svg width="281" height="276" xmlns="http://www.w3.org/2000/svg" xmlns:xlink="http://www.w3.org/1999/xlink" overflow="hidden"><defs><clipPath id="clip0"><rect x="992" y="158" width="281" height="276"/></clipPath></defs><g clip-path="url(#clip0)" transform="translate(-992 -158)"><path d="M1082.5 263.597C1084.74 261.233 1086 258.076 1086 254.792 1086.01 251.454 1084.71 248.251 1082.38 245.901L1042.9 205.726C1040.57 203.354 1037.41 202.014 1034.12 202 1030.83 202.026 1027.69 203.364 1025.37 205.726L1021 210.213 1077.96 268Z" fill="#FFFFFF" fill-rule="evenodd"/><path d="M1140.6 365.813C1138.18 368.271 1134.23 368.303 1131.77 365.884 1131.75 365.861 1131.73 365.837 1131.7 365.813L1059.99 294.094C1057.52 291.623 1057.52 287.621 1059.99 285.15L1068.93 276.459 1011.43 219C1007.72 222.712 1004.09 226.341 1001.73 228.577 995.947 233.984 992.484 241.424 992.072 249.333 991.551 262.232 993.854 275.09 998.822 287.006 1003.58 297.684 1009.42 307.847 1016.24 317.339 1039.98 352.951 1070 383.943 1104.83 408.802 1110.65 413.104 1116.76 416.981 1123.14 420.403 1137.54 427.974 1153.32 432.566 1169.54 433.903 1180.63 434.71 1191.49 430.444 1199.07 422.302L1207 414.371 1149.29 356.869Z" fill="#FFFFFF" fill-rule="evenodd"/><path d="M1220.32 383.771 1180.13 343.659C1175.18 338.78 1167.2 338.78 1162.24 343.659L1158 348.214 1215.83 406 1220.32 401.782C1225.23 396.852 1225.23 388.913 1220.32 383.982Z" fill="#FFFFFF" fill-rule="evenodd"/><path d="M1189 306 1172.03 306C1170.19 281.856 1152.77 261.686 1129 256.171L1129 239C1162.21 244.895 1187.02 272.597 1189 306Z" fill="#FFFFFF" fill-rule="evenodd"/><path d="M1229 297.517C1229 300.359 1229 303.201 1228.62 306L1211.74 306C1212.03 303.182 1212.17 300.351 1212.16 297.517 1212.09 251.385 1174.89 214.012 1129 213.965L1129 197C1184.21 197.047 1228.95 242.022 1229 297.517Z" fill="#FFFFFF" fill-rule="evenodd"/><path d="M1273 297.543C1273 300.376 1273 303.209 1272.7 306L1255.76 306C1255.76 303.209 1256.1 300.376 1256.1 297.543 1256.1 229.817 1201.11 174.914 1133.28 174.914 1133.26 174.914 1133.25 174.914 1133.24 174.914 1131.8 174.914 1130.4 174.914 1129 174.914L1129 158 1133.24 158C1210.43 158 1273 220.476 1273 297.543Z" fill="#FFFFFF" fill-rule="evenodd"/></g></svg>