<svg width="96" height="96" xmlns="http://www.w3.org/2000/svg" xmlns:xlink="http://www.w3.org/1999/xlink" overflow="hidden"><defs><clipPath id="clip0"><rect x="52" y="152" width="96" height="96"/></clipPath></defs><g clip-path="url(#clip0)" transform="translate(-52 -152)"><path d="M88.535 220.142C88.5344 222.65 90.5671 224.683 93.075 224.684 95.5829 224.685 97.6164 222.652 97.617 220.144 97.6176 217.636 95.5849 215.603 93.077 215.602 93.0763 215.602 93.0757 215.602 93.075 215.602 90.5679 215.603 88.5356 217.635 88.535 220.142ZM95.616 220.142C95.6166 221.545 94.4794 222.683 93.076 222.684 91.6726 222.685 90.5346 221.547 90.534 220.144 90.5334 218.741 91.6706 217.603 93.074 217.602 93.0747 217.602 93.0753 217.602 93.076 217.602 94.4779 217.604 95.6138 218.74 95.616 220.142Z" fill="#A6A6A6"/><path d="M101.107 228.653C99.8021 227.647 98.3091 226.913 96.716 226.493 95.5135 226.124 94.2629 225.935 93.005 225.933 91.7488 225.952 90.5008 226.14 89.295 226.493 87.7195 226.959 86.2347 227.689 84.904 228.653 84.3487 229.092 84.0186 229.755 84.004 230.463L84.004 235 102.004 235 102.004 230.46C101.989 229.754 101.66 229.092 101.107 228.653ZM100.007 233 86 233 86 230.5C86.0017 230.398 86.0455 230.301 86.121 230.233 87.2541 229.421 88.5152 228.803 89.852 228.407 90.8803 228.107 91.944 227.946 93.015 227.928 94.0693 227.931 95.1173 228.09 96.125 228.4L96.202 228.422C97.5302 228.769 98.7751 229.38 99.863 230.217 99.94 230.275 99.9904 230.362 100.003 230.458Z" fill="#A6A6A6"/><path d="M108.4 220.142C108.399 222.65 110.432 224.683 112.94 224.684 115.448 224.685 117.481 222.652 117.482 220.144 117.483 217.636 115.45 215.603 112.942 215.602 112.942 215.602 112.941 215.602 112.941 215.602 110.434 215.603 108.401 217.635 108.4 220.142ZM115.482 220.142C115.483 221.545 114.345 222.683 112.942 222.684 111.539 222.685 110.401 221.547 110.4 220.144 110.399 218.741 111.537 217.603 112.94 217.602 112.94 217.602 112.941 217.602 112.941 217.602 114.342 217.605 115.477 218.741 115.479 220.142Z" fill="#A6A6A6"/><path d="M121.109 228.653C119.804 227.647 118.312 226.913 116.719 226.493 115.516 226.124 114.266 225.935 113.008 225.933 111.752 225.952 110.504 226.14 109.298 226.493 107.722 226.959 106.238 227.689 104.907 228.653 104.352 229.092 104.022 229.755 104.007 230.463L104.007 235 122.007 235 122.007 230.46C121.992 229.754 121.663 229.091 121.109 228.653ZM120.009 233 106.009 233 106.009 230.5C106.011 230.398 106.055 230.301 106.131 230.233 107.264 229.42 108.524 228.803 109.861 228.407 110.889 228.107 111.953 227.946 113.024 227.928 114.079 227.931 115.127 228.09 116.135 228.4L116.212 228.422C117.54 228.769 118.785 229.379 119.872 230.217 119.949 230.275 119.999 230.362 120.012 230.458Z" fill="#A6A6A6"/><path d="M128.4 220.142C128.4 222.65 130.432 224.683 132.94 224.684 135.448 224.685 137.482 222.652 137.482 220.144 137.483 217.636 135.45 215.603 132.942 215.602 132.942 215.602 132.941 215.602 132.941 215.602 130.434 215.603 128.401 217.635 128.4 220.142ZM135.481 220.142C135.482 221.545 134.344 222.683 132.941 222.684 131.538 222.685 130.4 221.547 130.399 220.144 130.398 218.741 131.536 217.603 132.939 217.602 132.94 217.602 132.94 217.602 132.941 217.602 134.343 217.604 135.479 218.74 135.481 220.142Z" fill="#A6A6A6"/><path d="M141.112 228.653C139.807 227.647 138.314 226.913 136.721 226.493 135.519 226.124 134.269 225.935 133.011 225.933 131.754 225.952 130.506 226.14 129.3 226.493 127.725 226.959 126.24 227.689 124.91 228.653 124.354 229.091 124.024 229.755 124.01 230.463L124.01 235 142.01 235 142.01 230.46C141.995 229.754 141.666 229.091 141.112 228.653ZM140.012 233 126.012 233 126.012 230.5C126.014 230.398 126.058 230.301 126.133 230.233 127.266 229.421 128.527 228.803 129.864 228.407 130.892 228.107 131.956 227.946 133.027 227.928 134.081 227.931 135.129 228.09 136.137 228.4L136.214 228.422C137.542 228.769 138.787 229.38 139.875 230.217 139.952 230.275 140.002 230.362 140.015 230.458Z" fill="#A6A6A6"/><path d="M76 165C76 163.895 76.8954 163 78 163L129 163C130.105 163 131 163.895 131 165L131 199C131 200.105 130.105 201 129 201L95.163 201 93.952 203 129 203C131.209 203 133 201.209 133 199L133 165C133 162.791 131.209 161 129 161L78 161C75.7909 161 74 162.791 74 165L74 169.033C74.6785 169.079 75.3495 169.203 76 169.401Z" fill="#A6A6A6"/><path d="M85.9 199.131C86.2846 199.177 86.6614 198.997 86.867 198.669L91.159 191.823C91.628 191.081 92.61 190.859 93.3524 191.328 93.3777 191.344 93.4026 191.361 93.427 191.378 94.1179 191.936 94.2625 192.932 93.759 193.664L88.52 202.317C87.9865 203.197 86.859 203.506 85.951 203.023 85.4633 202.763 84.8576 202.948 84.598 203.436 84.3384 203.924 84.5233 204.529 85.011 204.789 86.8561 205.771 89.1468 205.141 90.23 203.353L95.459 194.717C96.2783 193.451 96.2526 191.816 95.394 190.577L108.076 177.658C108.457 177.258 108.442 176.625 108.042 176.244 107.65 175.871 107.032 175.877 106.648 176.258L93.807 189.338C93.1722 189.085 92.478 189.019 91.807 189.149 90.8395 189.343 89.993 189.923 89.464 190.756L86.3 195.805 84.453 190.217 84.388 190.063C82.9 186.647 79.355 186 73.344 186 67.333 186 63.792 186.647 62.292 190.073 62.292 190.073 62.252 190.157 62.232 190.214 62.2057 190.282 62.1847 190.353 62.169 190.424L58.678 209.509C58.261 211.283 59.3612 213.06 61.1354 213.477 61.2157 213.495 61.2966 213.511 61.378 213.524L61.678 213.571C61.7302 213.579 61.7831 213.583 61.836 213.583 62.388 213.566 62.8216 213.104 62.8045 212.553 62.7899 212.082 62.449 211.685 61.986 211.6L61.686 211.552C61.3284 211.497 61.0105 211.294 60.81 210.993 60.6016 210.677 60.5379 210.288 60.635 209.922L64.116 190.896 64.127 190.868C64.942 189.007 66.651 188 73.344 188 80.037 188 81.744 189.007 82.553 190.851L85.071 198.451C85.1922 198.819 85.5152 199.084 85.9 199.131Z" fill="#A6A6A6"/><path d="M80 195.42C79.4477 195.42 79 195.868 79 196.42L79 237 74.5 237 74.5 212.148 72.5 212.148 72.5 237 68 237 68 196.42C68 195.868 67.5523 195.42 67 195.42 66.4477 195.42 66 195.868 66 196.42L66 239 81 239 81 196.42C81 195.868 80.5523 195.42 80 195.42Z" fill="#A6A6A6"/><path d="M73.344 184C76.6577 184 79.344 181.314 79.344 178 79.344 174.686 76.6577 172 73.344 172 70.0303 172 67.344 174.686 67.344 178 67.3479 181.312 70.0319 183.996 73.344 184ZM73.344 174C75.5531 174 77.344 175.791 77.344 178 77.344 180.209 75.5531 182 73.344 182 71.1349 182 69.344 180.209 69.344 178 69.344 175.791 71.1349 174 73.344 174Z" fill="#A6A6A6"/></g></svg>