<svg width="96" height="96" xmlns="http://www.w3.org/2000/svg" xmlns:xlink="http://www.w3.org/1999/xlink" overflow="hidden"><defs><clipPath id="clip0"><rect x="52" y="273" width="96" height="96"/></clipPath></defs><g clip-path="url(#clip0)" transform="translate(-52 -273)"><path d="M122 288.567 122 282 78 282 78 288.567 66 288.567 66 308.867C66.053 313.923 68.0251 318.77 71.517 322.427 76.941 328.05 83.382 330.613 92.972 330.965L93.816 331.916C94.8902 333.071 95.6131 334.508 95.9 336.059 95.9691 336.509 96.0025 336.963 96 337.418L96 349 92 349C89.2399 349.003 87.0033 351.24 87 354L84 354C81.2413 354.007 79.0066 356.241 79 359L79 361 121 361 121 359C120.995 356.241 118.759 354.005 116 354L113 354C112.997 351.24 110.76 349.003 108 349L104 349 104 337.518C104 336.837 104.081 336.159 104.241 335.498 104.576 334.229 105.214 333.06 106.1 332.092L107.081 330.967C116.747 330.635 123.229 328.067 128.681 322.418 132.17 318.762 134.14 313.917 134.192 308.864L134.192 288.564ZM72.962 321.041C69.8474 317.743 68.0776 313.4 68 308.864L68 290.564 78 290.564 78 307.51C78.0001 311.05 78.9852 314.519 80.845 317.531L80.867 317.518C81.5655 318.636 82.3616 319.691 83.246 320.669L83.246 320.669C84.713 322.357 86.214 323.815 87.666 325.225L88.356 325.896C88.929 326.457 89.512 327.071 90.137 327.773L91.101 328.858C83.059 328.277 77.685 325.937 72.962 321.041ZM116 356 116 356C117.655 356.005 118.994 357.345 119 359L81 359 81 359C81.006 357.346 82.3457 356.006 84 356L116 356ZM108 351C109.657 351 111 352.343 111 354L89 354C89 352.343 90.3431 351 92 351L97 351 103 351ZM104.594 330.776C103.495 331.986 102.705 333.445 102.294 335.027 102.096 335.842 101.995 336.679 101.994 337.518L101.994 349 98 349 98 337.418C98.0005 336.857 97.956 336.296 97.867 335.742 97.5223 333.815 96.6353 332.025 95.31 330.584L91.63 326.444C90.974 325.706 90.36 325.059 89.752 324.465L89.058 323.791C87.636 322.409 86.166 320.981 84.707 319.306 83.9799 318.498 83.3094 317.642 82.7 316.742L82.555 316.493C80.8863 313.794 80.0016 310.683 80 307.51L80 284 120 284 120 289.488 119.9 295.606 119.9 307.606C119.898 310.779 119.014 313.89 117.345 316.589L117.209 316.813C116.859 317.313 115.801 318.713 115.129 319.473 113.892 320.926 112.57 322.304 111.169 323.6 109.933 324.783 108.722 326.051 107.569 327.369ZM132.194 308.864C132.117 313.397 130.35 317.738 127.238 321.035 122.477 325.97 117.053 328.312 108.912 328.871L109.078 328.681C110.189 327.408 111.358 326.181 112.552 325.041 114.003 323.703 115.372 322.279 116.652 320.777 117.534 319.793 118.331 318.735 119.034 317.616L119.059 317.631C120.918 314.619 121.901 311.149 121.9 307.61L121.9 295.623 121.983 290.567 132.194 290.567Z" fill="#A6A6A6"/></g></svg>