<svg width="96" height="96" xmlns="http://www.w3.org/2000/svg" xmlns:xlink="http://www.w3.org/1999/xlink" overflow="hidden"><defs><clipPath id="clip0"><rect x="46" y="46" width="96" height="96"/></clipPath></defs><g clip-path="url(#clip0)" transform="translate(-46 -46)"><path d="M138 79 140 79 140 81 138 81Z" fill="#A6A6A6"/><path d="M134 79 136 79 136 81 134 81Z" fill="#A6A6A6"/><path d="M122 79 124 79 124 81 122 81Z" fill="#A6A6A6"/><path d="M126 79 128 79 128 81 126 81Z" fill="#A6A6A6"/><path d="M118 79 120 79 120 81 118 81Z" fill="#A6A6A6"/><path d="M130 79 132 79 132 81 130 81Z" fill="#A6A6A6"/><path d="M114 79 116 79 116 81 114 81Z" fill="#A6A6A6"/><path d="M114 71 116 71 116 73 114 73Z" fill="#A6A6A6"/><path d="M114 75 116 75 116 77 114 77Z" fill="#A6A6A6"/><path d="M114 59 116 59 116 61 114 61Z" fill="#A6A6A6"/><path d="M114 67 116 67 116 69 114 69Z" fill="#A6A6A6"/><path d="M114 63 116 63 116 65 114 65Z" fill="#A6A6A6"/><path d="M114 55 116 55 116 57 114 57Z" fill="#A6A6A6"/><path d="M134 55 136 55 136 57 134 57Z" fill="#A6A6A6"/><path d="M126 55 128 55 128 57 126 57Z" fill="#A6A6A6"/><path d="M122 55 124 55 124 57 122 57Z" fill="#A6A6A6"/><path d="M118 55 120 55 120 57 118 57Z" fill="#A6A6A6"/><path d="M130 55 132 55 132 57 130 57Z" fill="#A6A6A6"/><path d="M138 55 140 55 140 57 138 57Z" fill="#A6A6A6"/><path d="M138 63 140 63 140 65 138 65Z" fill="#A6A6A6"/><path d="M138 71 140 71 140 73 138 73Z" fill="#A6A6A6"/><path d="M138 67 140 67 140 69 138 69Z" fill="#A6A6A6"/><path d="M138 75 140 75 140 77 138 77Z" fill="#A6A6A6"/><path d="M138 59 140 59 140 61 138 61Z" fill="#A6A6A6"/><path d="M59.001 65.983 59.001 68 111 67.983 111 65.983 59.001 65.983Z" fill="#A6A6A6"/><path d="M127.004 76 129.004 76 129.004 67.983 129.004 65.983 127.004 65.983 119 65.983 119 67.983 127.004 67.983 127.004 76Z" fill="#A6A6A6"/><path d="M59.001 95 59.001 109.995 59.001 111.995 61.001 111.995 127.004 111.995 129.004 111.995 129.004 109.995 129.004 84 127.004 84 127.004 109.995 61.001 109.995 61.001 95 59.001 95Z" fill="#A6A6A6"/><path d="M56 64.982C56 63.8774 56.8954 62.982 58 62.982L111 62.982 111 60.982 58 60.982C55.7936 60.9886 54.0066 62.7756 54 64.982L54 68 56 68Z" fill="#A6A6A6"/><path d="M132 64.982 132 76 134 76 134 64.982C133.993 62.7756 132.206 60.9886 130 60.982L119 60.982 119 62.982 130 62.982C131.105 62.982 132 63.8774 132 64.982Z" fill="#A6A6A6"/><path d="M132 113C132 114.105 131.105 115 130 115L58 115C56.8954 115 56 114.105 56 113L56 95 54 95 54 113C54.0071 115.206 55.7938 116.993 58 117L87 117 87 127 76 127 76 129 112 129 112 127 101 127 101 117 130 117C132.206 116.993 133.993 115.206 134 113L134 84 132 84ZM99 127 89 127 89 117 99 117Z" fill="#A6A6A6"/><path d="M74 71 48 71 48 92 74 92ZM72 90 50 90 50 73 72 73Z" fill="#A6A6A6"/><path d="M55 77 67 77 67 79 55 79Z" fill="#A6A6A6"/><path d="M55 83 63 83 63 85 55 85Z" fill="#A6A6A6"/><path d="M94 103C101.732 103 108 96.732 108 89 108 81.268 101.732 75 94 75 86.268 75 80 81.268 80 89 80.0083 96.7286 86.2714 102.992 94 103ZM87.013 98.737C87.159 94.8782 90.4056 91.8684 94.2644 92.0144 97.9184 92.1526 100.849 95.083 100.987 98.737 96.8176 101.754 91.1824 101.754 87.013 98.737ZM91 87C91 85.3431 92.3431 84 94 84 95.6569 84 97 85.3431 97 87 97 88.6569 95.6569 90 94 90 92.3431 90 91 88.6569 91 87ZM94 77C100.616 76.9898 105.988 82.3451 105.999 88.9614 106.003 91.9904 104.86 94.9087 102.8 97.129 102.172 94.2092 100.141 91.7886 97.375 90.663 99.4114 88.7979 99.5503 85.6352 97.6853 83.5987 95.8202 81.5623 92.6574 81.4234 90.621 83.2885 88.5846 85.1535 88.4457 88.3163 90.3107 90.3527 90.4096 90.4607 90.5131 90.5642 90.621 90.663 87.8562 91.7896 85.827 94.21 85.2 97.129 80.6994 92.2791 80.9826 84.6991 85.8324 80.1985 88.0527 78.1382 90.971 76.9953 94 77Z" fill="#A6A6A6"/><path d="M121.748 97.608C121.748 97.524 121.664 97.44 121.496 97.356L111.5 94 111.416 94C111.236 94.0121 111.092 94.1557 111.08 94.336L111.08 94.42 114.357 104.5C114.437 104.657 114.6 104.755 114.777 104.752 114.861 104.752 114.945 104.668 115.029 104.5L116.284 101.07C116.287 101.066 116.294 101.065 116.298 101.068 116.299 101.069 116.299 101.069 116.3 101.07L120.236 105 122 103.236 118.064 99.3C118.059 99.2961 118.059 99.2892 118.062 99.2845 118.063 99.284 118.063 99.2835 118.064 99.283L121.5 98.028C121.656 97.9466 121.752 97.7838 121.748 97.608Z" fill="#A6A6A6"/></g></svg>