<svg width="390" height="390" xmlns="http://www.w3.org/2000/svg" xmlns:xlink="http://www.w3.org/1999/xlink" overflow="hidden"><defs><clipPath id="clip0"><rect x="3880" y="469" width="390" height="390"/></clipPath></defs><g clip-path="url(#clip0)" transform="translate(-3880 -469)"><path d="M4047.22 518.916C4054.1 521.149 4060.81 523.864 4067.31 527.041 4137.4 562.221 4165.9 647.422 4131.09 717.698 4096.53 787.845 4011.65 816.695 3941.5 782.135 3941.31 782.043 3941.12 781.95 3940.94 781.857 3934.4 778.581 3928.12 774.811 3922.15 770.58 3981.1 769.258 4034.46 735.407 4060.78 682.647 4087.18 629.818 4081.95 566.68 4047.22 518.916ZM4025.05 505.562C4083.86 564.255 4083.96 659.509 4025.27 718.32 3997.02 746.621 3958.67 762.515 3918.69 762.491 3911.87 762.493 3905.06 762.026 3898.3 761.094 3909.73 772.45 3922.89 781.913 3937.3 789.125 4011.69 826.013 4101.9 795.614 4138.78 721.227 4175.67 646.84 4145.27 556.634 4070.88 519.746 4056.46 512.595 4040.99 507.806 4025.05 505.562Z" fill="#FFFFFF"/><path d="M4212.42 673.75 4212.42 673.75 4213.28 675.026C4215.52 678.342 4219.25 680.343 4223.24 680.372 4224.22 680.37 4225.19 680.249 4226.14 680.01L4227.82 679.576 4227.82 679.576 4226.28 681.847C4223.62 685.847 4223.65 691.061 4226.35 695.033L4226.83 695.724C4226.87 695.781 4226.83 695.809 4226.78 695.785L4225.66 695.379 4225.25 695.237 4224.85 695.135C4223.8 694.869 4222.73 694.732 4221.66 694.729 4218.28 694.726 4215.04 696.075 4212.66 698.474L4212.37 698.771 4212.11 699.088 4210.7 700.823 4210.7 700.823 4210.7 698.938C4210.83 695.148 4209.09 691.536 4206.04 689.285L4205.42 688.672 4204.34 688.099 4201.94 686.831 4201.94 686.831 4203.16 686.559 4204.12 686.344 4205 685.893C4209.26 684.03 4212.09 679.915 4212.31 675.273ZM4208.92 657.37C4208.56 657.378 4208.21 657.428 4207.86 657.516 4206.22 657.98 4205.06 659.462 4205.02 661.172L4204.21 674.985C4204.04 676.65 4202.94 678.073 4201.36 678.641L4188.77 681.485C4186.71 682.045 4185.5 684.166 4186.06 686.223 4186.38 687.396 4187.23 688.35 4188.36 688.797L4193.65 691.641 4200.55 695.297C4200.96 695.704 4201.77 696.11 4202.18 696.922 4202.5 697.546 4202.65 698.252 4202.58 698.954L4202.58 712.75C4202.45 714.385 4203.46 715.896 4205.02 716.406 4205.42 716.508 4205.83 716.559 4206.24 716.561 4207.46 716.559 4208.64 716.065 4209.49 715.188L4218.43 704.219C4219.28 703.343 4220.45 702.849 4221.68 702.85 4222.09 702.85 4222.5 702.9 4222.9 703L4236.3 707.875C4236.7 707.975 4237.11 708.026 4237.52 708.025 4238.74 708.026 4239.92 707.532 4240.77 706.656 4241.9 705.429 4242.07 703.598 4241.18 702.188L4233.05 690.406C4232.24 689.174 4232.24 687.576 4233.05 686.344L4240.77 674.969C4242 673.16 4241.54 670.693 4239.73 669.459 4239.05 668.994 4238.24 668.754 4237.42 668.769 4237.18 668.766 4236.94 668.801 4236.71 668.875L4224.11 672.125C4223.83 672.196 4223.54 672.231 4223.25 672.231 4221.97 672.213 4220.77 671.567 4220.05 670.5L4212.33 659.125C4211.61 658.066 4210.43 657.411 4209.15 657.358Z" fill="#FFFFFF"/><path d="M4179.61 508.313 4179.61 508.313 4191.96 520.655C4194.66 523.332 4198.31 524.834 4202.11 524.835 4204.23 524.846 4206.31 524.362 4208.21 523.421L4222.42 516.47 4222.42 516.47 4215.81 532.525 4215.71 532.785 4215.62 533.053C4213.77 538.257 4214.94 544.054 4218.66 548.133L4230.48 560.881 4230.48 560.881 4213.1 558.038C4212.37 557.933 4211.63 557.88 4210.9 557.879 4205.57 557.807 4200.68 560.774 4198.28 565.525L4190.15 580.272 4190.15 580.272 4187.48 563.957 4187.38 563.315 4187.17 562.701C4186.51 560.303 4185.28 558.099 4183.59 556.279L4183.01 555.706 4182.34 555.259C4182.1 555.092 4181.88 554.926 4181.67 554.771 4180.31 553.697 4178.79 552.856 4177.16 552.281L4177.04 552.241 4176.92 552.204 4164.77 548.548 4159.32 546.886 4159.32 546.886 4174.12 539.643C4179.65 536.905 4182.75 530.9 4181.8 524.811ZM4177.05 497.437C4176.2 497.411 4175.35 497.549 4174.55 497.844 4172.24 499.179 4170.83 501.672 4170.9 504.344L4173.74 525.875C4174.24 528.526 4172.91 531.186 4170.49 532.375L4151.4 541.719C4148.97 542.907 4147.64 545.568 4148.15 548.219 4148.57 550.795 4150.49 552.871 4153.02 553.5L4162.36 556.344 4174.55 560C4175.72 560.528 4176.81 561.211 4177.8 562.031 4178.58 562.979 4179.14 564.09 4179.43 565.281L4183.08 587.625C4183.41 590.393 4185.6 592.576 4188.36 592.906 4188.65 592.946 4188.93 592.966 4189.22 592.967 4191.55 592.874 4193.6 591.417 4194.46 589.25L4205.43 569.344C4206.43 567.262 4208.56 565.96 4210.87 566.016 4211.22 566.016 4211.58 566.042 4211.93 566.094L4234.27 569.75C4234.62 569.802 4234.98 569.827 4235.33 569.827 4237.64 569.881 4239.77 568.58 4240.77 566.5 4241.98 564.117 4241.66 561.247 4239.96 559.187L4224.52 542.531C4222.89 540.622 4222.42 537.977 4223.3 535.625L4231.83 514.906C4232.71 512.554 4232.25 509.909 4230.61 508 4229.37 506.847 4227.74 506.204 4226.04 506.196 4225.22 506.177 4224.42 506.379 4223.71 506.781L4204.61 516.125C4203.83 516.514 4202.97 516.714 4202.1 516.71 4200.46 516.702 4198.88 516.055 4197.71 514.906L4182.27 499.469C4180.94 498.194 4179.18 497.468 4177.33 497.437Z" fill="#FFFFFF"/><path d="M177.686 288.318C79.5529 288.318 0 223.776 0 144.159-2.26219e-14 64.5423 79.5529-1.83534e-14 177.686-3.67068e-14 79.553 53.9247 53.8814 162.182 120.347 241.798 135.643 260.12 155.103 275.909 177.686 288.318Z" fill="#FFFFFF" fill-rule="evenodd" transform="matrix(-0.88998 -0.455999 -0.455999 0.88998 4199.4 593.462)"/><path d="M4152.23 550.492 4174.51 532.287 4173.6 502.701 4198.14 519.256 4225.42 510.13 4218.31 538.567 4236.08 562.514 4207.15 563.533 4190.85 587.459 4180.08 559.652Z" fill="#FFFF00" fill-rule="evenodd"/><path d="M4191.4 685.423 4205.94 678.973 4210.05 665.937 4220.38 674.884 4236.14 672.759 4227.99 684.739 4233.62 696.462 4218.25 694.919 4205.97 704.289 4204.62 691.355Z" fill="#FFC000" fill-rule="evenodd"/></g></svg>