<svg width="96" height="96" xmlns="http://www.w3.org/2000/svg" xmlns:xlink="http://www.w3.org/1999/xlink" overflow="hidden"><defs><clipPath id="clip0"><rect x="46" y="394" width="96" height="96"/></clipPath></defs><g clip-path="url(#clip0)" transform="translate(-46 -394)"><path d="M62 431 77 431 77 438 84 431 90 431 94 438 98 431 104 431 111 438 111 431 127 431C129.209 431 131 429.209 131 427L131 406C131 403.791 129.209 402 127 402L62 402C59.7909 402 58 403.791 58 406L58 427C58 429.209 59.7909 431 62 431ZM60 406C60 404.895 60.8954 404 62 404L127 404C128.105 404 129 404.895 129 406L129 427C129 428.105 128.105 429 127 429L109 429 109 433.172 105.414 429.586 104.828 429 96.839 429 96.264 430.008 94 433.969 91.737 430.008 91.161 429 83.172 429 82.586 429.586 79 433.172 79 429 62 429C60.8954 429 60 428.105 60 427Z" fill="#A6A6A6"/><path d="M74 411 121 411 121 413 74 413Z" fill="#A6A6A6"/><path d="M68 416 121 416 121 418 68 418Z" fill="#A6A6A6"/><path d="M84 421 121 421 121 423 84 423Z" fill="#A6A6A6"/><path d="M108.262 450.74C108.263 455.014 111.728 458.477 116.002 458.476 120.276 458.475 123.739 455.01 123.738 450.736 123.737 446.463 120.273 443 116 443 111.726 443.001 108.261 446.466 108.262 450.74ZM121.738 450.74C121.737 453.909 119.167 456.477 115.998 456.476 112.829 456.475 110.261 453.905 110.262 450.736 110.263 447.568 112.832 445 116 445 119.168 445.004 121.735 447.572 121.738 450.74Z" fill="#A6A6A6"/><path d="M66.262 450.945C66.2631 455.219 69.7284 458.682 74.002 458.681 78.2756 458.68 81.7391 455.215 81.738 450.941 81.7369 446.668 78.2728 443.205 74 443.205 69.7259 443.206 66.2614 446.671 66.262 450.945ZM79.738 450.945C79.7369 454.114 77.167 456.682 73.998 456.681 70.829 456.68 68.2609 454.11 68.262 450.941 68.2631 447.773 70.8318 445.205 74 445.205 77.168 445.209 79.7347 447.777 79.738 450.945Z" fill="#A6A6A6"/><path d="M130.133 464.619C127.86 462.866 125.255 461.591 122.475 460.873 120.377 460.228 118.195 459.897 116 459.892 113.812 459.927 111.639 460.256 109.538 460.869 106.788 461.668 104.196 462.934 101.875 464.612 101.724 464.734 101.58 464.864 101.443 465.002 101.643 465.058 101.843 465.102 102.049 465.162 102.657 465.335 103.239 465.527 103.81 465.728 105.741 464.445 107.853 463.458 110.076 462.8 112.002 462.238 113.994 461.935 116 461.9 118.005 461.906 119.997 462.209 121.913 462.8 124.438 463.446 126.806 464.596 128.875 466.182 129.562 466.714 129.975 467.525 130 468.394L130 474.794 132 474.794 132 468.394C131.976 466.919 131.291 465.533 130.133 464.619Z" fill="#A6A6A6"/><path d="M86.058 465.8C86.701 465.558 87.346 465.339 87.989 465.156 88.126 465.119 88.253 465.093 88.389 465.056 88.305 464.979 88.224 464.899 88.134 464.828 85.861 463.074 83.2558 461.799 80.476 461.08 78.3775 460.436 76.1952 460.105 74 460.1 71.8121 460.136 69.6389 460.464 67.538 461.076 64.7876 461.875 62.1954 463.141 59.875 464.82 58.7135 465.734 58.025 467.122 58 468.6L58 475 60 475 60 468.6C60.0186 467.744 60.4174 466.94 61.088 466.408 63.2093 464.888 65.5717 463.735 68.076 463 70.0019 462.438 71.9941 462.135 74 462.1 76.0046 462.107 77.9972 462.41 79.913 463 82.1026 463.586 84.1793 464.532 86.058 465.8Z" fill="#A6A6A6"/><path d="M109.133 470.825C106.86 469.071 104.255 467.796 101.475 467.077 99.3767 466.434 97.1947 466.104 95 466.1 92.8121 466.136 90.6389 466.464 88.538 467.076 85.7876 467.875 83.1954 469.141 80.875 470.82 79.7135 471.734 79.025 473.122 79 474.6L79 481 81 481 81 474.6C81.0186 473.744 81.4174 472.94 82.088 472.408 84.2093 470.888 86.5717 469.735 89.076 469 91.0019 468.438 92.9941 468.135 95 468.1 97.0046 468.107 98.9972 468.41 100.913 469 103.438 469.646 105.806 470.797 107.875 472.382 108.564 472.915 108.977 473.729 109 474.6L109 481 111 481 111 474.6C110.977 473.125 110.291 471.739 109.133 470.825Z" fill="#A6A6A6"/><path d="M87.262 456.945C87.2631 461.219 90.7284 464.682 95.002 464.681 99.2756 464.68 102.739 461.215 102.738 456.941 102.737 452.668 99.2728 449.205 95 449.205 90.7259 449.206 87.2614 452.671 87.262 456.945ZM100.738 456.945C100.737 460.114 98.167 462.682 94.998 462.681 91.829 462.68 89.2609 460.11 89.262 456.941 89.2631 453.773 91.8318 451.205 95 451.205 98.168 451.209 100.735 453.777 100.738 456.945Z" fill="#A6A6A6"/></g></svg>