<svg width="265" height="298" xmlns="http://www.w3.org/2000/svg" xmlns:xlink="http://www.w3.org/1999/xlink" overflow="hidden"><defs><clipPath id="clip0"><rect x="618" y="1449" width="265" height="298"/></clipPath></defs><g clip-path="url(#clip0)" transform="translate(-618 -1449)"><path d="M708 1747 618 1709.62 618 1486.38 708 1449 708 1747Z" fill="#FFFFFF" fill-rule="evenodd"/><path d="M800.353 1523 800.353 1565.99 722 1565.99 722 1621.01 800.353 1621.01 800.353 1664 883 1593.5 800.353 1523Z" fill="#FFFF00" fill-rule="evenodd"/><path d="M758.586 1553 779 1553 779 1484 722 1484 722 1504.7 758.586 1504.7 758.586 1553Z" fill="#FFFFFF" fill-rule="evenodd"/><path d="M758.586 1635 758.586 1690.27 722 1690.27 722 1711 779 1711 779 1635 758.586 1635Z" fill="#FFFFFF" fill-rule="evenodd"/></g></svg>