<svg width="288" height="258" xmlns="http://www.w3.org/2000/svg" xmlns:xlink="http://www.w3.org/1999/xlink" overflow="hidden"><defs><clipPath id="clip0"><rect x="3936" y="140" width="288" height="258"/></clipPath></defs><g clip-path="url(#clip0)" transform="translate(-3936 -140)"><path d="M4110 140 4124 140 4124 181 4110 181Z" fill="#FFFFFF" fill-rule="evenodd"/><path d="M4197.52 175.915 4168.35 205.082 4158.63 195.36 4187.8 166.192Z" fill="#FFFFFF" fill-rule="evenodd"/><path d="M4182 240 4224 240 4224 253 4182 253Z" fill="#FFFFFF" fill-rule="evenodd"/><path d="M4197.45 316.824 4187.73 326.546 4158.56 297.378 4168.28 287.656Z" fill="#FFFFFF" fill-rule="evenodd"/><path d="M4011 240 4052 240 4052 253 4011 253Z" fill="#FFFFFF" fill-rule="evenodd"/><path d="M4075.81 195.533 4066.09 205.256 4036.92 176.088 4046.64 166.366Z" fill="#FFFFFF" fill-rule="evenodd"/><path d="M4137.32 332.547C4135.61 332.547 4133.89 332.547 4132.17 332.892 4132.17 332.892 4132.17 332.547 4132.17 332.547 4132.17 319.457 4125.99 306.711 4115 299.132 4104.36 291.209 4090.62 289.142 4077.92 293.276 4067.27 273.295 4044.27 262.961 4022.29 268.472 4000.31 273.64 3984.86 293.276 3984.17 316.012 3969.75 313.256 3954.3 318.768 3944.68 330.825 3935.41 342.882 3933.35 359.418 3939.53 373.197 3945.71 387.321 3959.11 396.622 3974.56 397.656L4139.38 398C4157.24 397.656 4171.66 382.498 4170.98 364.24 4170.63 346.327 4155.52 332.203 4137.32 332.547Z" fill="#FFFFFF" fill-rule="evenodd"/><path d="M4068.61 263.317C4074.75 267.101 4080.54 272.262 4084.98 278.111 4102.7 276.046 4120.09 282.583 4132.03 296 4151.8 289.808 4166.12 272.262 4167.83 251.276 4169.53 230.29 4158.62 210.336 4140.21 200.703 4121.8 191.07 4099.29 193.822 4083.61 207.583 4067.93 221.345 4062.13 243.363 4068.61 263.317L4068.61 263.317Z" fill="#FFFF00" fill-rule="evenodd"/></g></svg>